<?xml version="1.0" encoding="UTF-8" standalone="no"?>
<!-- Generated by IcoMoon.io -->

<svg
   xmlns:dc="http://purl.org/dc/elements/1.1/"
   xmlns:cc="http://creativecommons.org/ns#"
   xmlns:rdf="http://www.w3.org/1999/02/22-rdf-syntax-ns#"
   xmlns:svg="http://www.w3.org/2000/svg"
   xmlns="http://www.w3.org/2000/svg"
   xmlns:sodipodi="http://sodipodi.sourceforge.net/DTD/sodipodi-0.dtd"
   xmlns:inkscape="http://www.inkscape.org/namespaces/inkscape"
   version="1.1"
   width="20"
   height="20"
   viewBox="0 0 20 20"
   id="svg6"
   sodipodi:docname="camera-video.svg"
   inkscape:version="0.92.4 (5da689c313, 2019-01-14)">
  <metadata
     id="metadata12">
    <rdf:RDF>
      <cc:Work
         rdf:about="">
        <dc:format>image/svg+xml</dc:format>
        <dc:type
           rdf:resource="http://purl.org/dc/dcmitype/StillImage" />
      </cc:Work>
    </rdf:RDF>
  </metadata>
  <defs
     id="defs10" />
  <sodipodi:namedview
     pagecolor="#ffffff"
     bordercolor="#666666"
     borderopacity="1"
     objecttolerance="10"
     gridtolerance="10"
     guidetolerance="10"
     inkscape:pageopacity="0"
     inkscape:pageshadow="2"
     inkscape:window-width="1366"
     inkscape:window-height="715"
     id="namedview8"
     showgrid="false"
     inkscape:zoom="11.8"
     inkscape:cx="10"
     inkscape:cy="10"
     inkscape:window-x="-8"
     inkscape:window-y="-8"
     inkscape:window-maximized="1"
     inkscape:current-layer="svg6" />
  <path
     d="m 19.131,17.053 v 0 c -0.242,0 -0.485,-0.097 -0.724,-0.288 L 14.969,14.014 C 14.417,13.572 14,12.706 14,11.999 v -3 C 14,8.292 14.416,7.426 14.969,6.984 L 18.407,4.233 C 18.646,4.042 18.889,3.945 19.131,3.945 19.564,3.945 20,4.271 20,4.998 v 11 c 0,0.278 -0.064,0.512 -0.19,0.694 -0.157,0.228 -0.405,0.359 -0.679,0.359 z"
     id="path2"
     inkscape:connector-curvature="0"
     style="fill:#000000"
     sodipodi:nodetypes="ccccssccsssccc" />
  <path
     d="M 11.5,17 H 1.5 C 0.673,17 0,16.327 0,15.5 V 5.5 C 0,4.673 0.673,4 1.5,4 h 10 C 12.327,4 13,4.673 13,5.5 v 10 c 0,0.827 -0.673,1.5 -1.5,1.5 z"
     id="path4"
     inkscape:connector-curvature="0"
     style="fill:#000000"
     sodipodi:nodetypes="sssssssss" />
</svg>
