<svg xmlns="http://www.w3.org/2000/svg" viewBox="0 0 1000 500" width="1000" height="500" preserveAspectRatio="xMidYMid meet" style="width: 100%; height: 100%; transform: translate3d(0px, 0px, 0px);"><defs><clipPath id="__lottie_element_3"><rect width="1000" height="500" x="0" y="0"></rect></clipPath><mask id="__lottie_element_7" mask-type="alpha"><g style="display: none;"><g><path fill="url(#__lottie_element_13)"></path></g></g></mask><linearGradient id="__lottie_element_13" spreadMethod="pad" gradientUnits="userSpaceOnUse"><stop></stop><stop></stop><stop></stop></linearGradient><clipPath id="__lottie_element_15"><path d="M0,0 L1000,0 L1000,500 L0,500z"></path></clipPath><filter id="__lottie_element_24" filterUnits="objectBoundingBox" x="0%" y="0%" width="100%" height="100%"><feComponentTransfer in="SourceGraphic"><feFuncA type="table" tableValues="1.0 0.0"></feFuncA></feComponentTransfer></filter><mask id="__lottie_element_23" mask-type="alpha"><g filter="url(#__lottie_element_24)"><rect width="1000" height="500" x="0" y="0" fill="#ffffff" opacity="0"></rect><g style="display: none;"><g><path fill="url(#__lottie_element_27)"></path><path stroke-linecap="butt" stroke-linejoin="miter" fill-opacity="0" stroke-miterlimit="4"></path></g></g></g></mask><linearGradient id="__lottie_element_27" spreadMethod="pad" gradientUnits="userSpaceOnUse"><stop></stop><stop></stop><stop></stop></linearGradient><clipPath id="__lottie_element_32"><path d="M0,0 L1000,0 L1000,500 L0,500z"></path></clipPath><filter id="__lottie_element_41" filterUnits="objectBoundingBox" x="0%" y="0%" width="100%" height="100%"><feComponentTransfer in="SourceGraphic"><feFuncA type="table" tableValues="1.0 0.0"></feFuncA></feComponentTransfer></filter><mask id="__lottie_element_40" mask-type="alpha"><g filter="url(#__lottie_element_41)"><rect width="1000" height="500" x="0" y="0" fill="#ffffff" opacity="0"></rect><g transform="matrix(1,0,0,1,500,250)" opacity="1" style="display: block;"><g opacity="1" transform="matrix(1,0,0,1,-307.375,-136)"><path fill="url(#__lottie_element_44)" fill-opacity="1" d=" M25.875,-57.25 C25.875,-57.25 25.875,57.25 25.875,57.25 C25.875,57.25 -25.875,57.25 -25.875,57.25 C-25.875,57.25 -25.875,-57.25 -25.875,-57.25 C-25.875,-57.25 25.875,-57.25 25.875,-57.25z"></path><path stroke-linecap="butt" stroke-linejoin="miter" fill-opacity="0" stroke-miterlimit="4" stroke="rgb(255,255,255)" stroke-opacity="1" stroke-width="0" d=" M25.875,-57.25 C25.875,-57.25 25.875,57.25 25.875,57.25 C25.875,57.25 -25.875,57.25 -25.875,57.25 C-25.875,57.25 -25.875,-57.25 -25.875,-57.25 C-25.875,-57.25 25.875,-57.25 25.875,-57.25z"></path></g></g></g></mask><linearGradient id="__lottie_element_44" spreadMethod="pad" gradientUnits="userSpaceOnUse" x1="0" y1="0" x2="100" y2="0"><stop offset="0%" stop-color="rgb(217,120,125)"></stop><stop offset="50%" stop-color="rgb(170,73,99)"></stop><stop offset="100%" stop-color="rgb(122,26,74)"></stop></linearGradient><linearGradient id="__lottie_element_51" spreadMethod="pad" gradientUnits="userSpaceOnUse" x1="-20.547000885009766" y1="-10.119000434875488" x2="14.166999816894531" y2="-8.095000267028809"><stop offset="0%" stop-color="rgb(249,226,124)"></stop><stop offset="50%" stop-color="rgb(252,209,94)"></stop><stop offset="100%" stop-color="rgb(255,191,63)"></stop></linearGradient><linearGradient id="__lottie_element_56" spreadMethod="pad" gradientUnits="userSpaceOnUse" x1="25.430999755859375" y1="0" x2="-25.430999755859375" y2="-50.862998962402344"><stop offset="0%" stop-color="rgb(245,126,182)"></stop><stop offset="4%" stop-color="rgb(246,116,178)"></stop><stop offset="7%" stop-color="rgb(246,105,175)"></stop><stop offset="21%" stop-color="rgb(248,68,161)"></stop><stop offset="35%" stop-color="rgb(249,30,148)"></stop><stop offset="41%" stop-color="rgb(249,15,143)"></stop><stop offset="47%" stop-color="rgb(250,0,138)"></stop><stop offset="74%" stop-color="rgb(193,12,147)"></stop><stop offset="100%" stop-color="rgb(135,24,157)"></stop></linearGradient><linearGradient id="__lottie_element_61" spreadMethod="pad" gradientUnits="userSpaceOnUse" x1="25.430999755859375" y1="0" x2="-25.430999755859375" y2="-50.862998962402344"><stop offset="0%" stop-color="rgb(245,126,182)"></stop><stop offset="4%" stop-color="rgb(246,116,178)"></stop><stop offset="7%" stop-color="rgb(246,105,175)"></stop><stop offset="21%" stop-color="rgb(248,68,161)"></stop><stop offset="35%" stop-color="rgb(249,30,148)"></stop><stop offset="41%" stop-color="rgb(249,15,143)"></stop><stop offset="47%" stop-color="rgb(250,0,138)"></stop><stop offset="74%" stop-color="rgb(193,12,147)"></stop><stop offset="100%" stop-color="rgb(135,24,157)"></stop></linearGradient><linearGradient id="__lottie_element_66" spreadMethod="pad" gradientUnits="userSpaceOnUse" x1="25.430999755859375" y1="0" x2="-25.430999755859375" y2="-50.862998962402344"><stop offset="0%" stop-color="rgb(245,126,182)"></stop><stop offset="4%" stop-color="rgb(246,116,178)"></stop><stop offset="7%" stop-color="rgb(246,105,175)"></stop><stop offset="21%" stop-color="rgb(248,68,161)"></stop><stop offset="35%" stop-color="rgb(249,30,148)"></stop><stop offset="41%" stop-color="rgb(249,15,143)"></stop><stop offset="47%" stop-color="rgb(250,0,138)"></stop><stop offset="74%" stop-color="rgb(193,12,147)"></stop><stop offset="100%" stop-color="rgb(135,24,157)"></stop></linearGradient><linearGradient id="__lottie_element_71" spreadMethod="pad" gradientUnits="userSpaceOnUse" x1="19.16699981689453" y1="63.33300018310547" x2="19.16699981689453" y2="-68.4469985961914"><stop offset="0%" stop-color="rgb(5,177,204)"></stop><stop offset="50%" stop-color="rgb(34,101,177)"></stop><stop offset="100%" stop-color="rgb(64,24,151)"></stop></linearGradient><linearGradient id="__lottie_element_76" spreadMethod="pad" gradientUnits="userSpaceOnUse" x1="24.16699981689453" y1="-55" x2="-21.66699981689453" y2="52.5"><stop offset="0%" stop-color="rgb(2,220,183)"></stop><stop offset="50%" stop-color="rgb(1,196,162)"></stop><stop offset="100%" stop-color="rgb(0,171,142)"></stop></linearGradient><mask id="__lottie_element_72" mask-type="alpha"><g transform="matrix(1,0,0,1,750,416.6659851074219)" opacity="1" style="display: block;"><g opacity="1" transform="matrix(2,0,0,2,0,0)"><path fill="url(#__lottie_element_79)" fill-opacity="1" d=" M-41.66699981689453,41.66699981689453 C-41.66699981689453,41.66699981689453 41.66699981689453,41.66699981689453 41.66699981689453,41.66699981689453 C41.66699981689453,41.66699981689453 41.66699981689453,-41.66699981689453 41.66699981689453,-41.66699981689453 C-4.386000156402588,-41.66699981689453 -41.66699981689453,-4.386000156402588 -41.66699981689453,41.66699981689453z"></path></g></g></mask><linearGradient id="__lottie_element_79" spreadMethod="pad" gradientUnits="userSpaceOnUse" x1="24.16699981689453" y1="-55" x2="-21.66699981689453" y2="52.5"><stop offset="0%" stop-color="rgb(2,220,183)"></stop><stop offset="50%" stop-color="rgb(1,196,162)"></stop><stop offset="100%" stop-color="rgb(0,171,142)"></stop></linearGradient><linearGradient id="__lottie_element_87" spreadMethod="pad" gradientUnits="userSpaceOnUse" x1="-41.66699981689453" y1="0" x2="41.66699981689453" y2="0"><stop offset="0%" stop-color="rgb(245,126,182)"></stop><stop offset="4%" stop-color="rgb(246,116,178)"></stop><stop offset="7%" stop-color="rgb(246,105,175)"></stop><stop offset="21%" stop-color="rgb(248,68,161)"></stop><stop offset="35%" stop-color="rgb(249,30,148)"></stop><stop offset="41%" stop-color="rgb(249,15,143)"></stop><stop offset="47%" stop-color="rgb(250,0,138)"></stop><stop offset="74%" stop-color="rgb(193,12,147)"></stop><stop offset="100%" stop-color="rgb(135,24,157)"></stop></linearGradient><linearGradient id="__lottie_element_94" spreadMethod="pad" gradientUnits="userSpaceOnUse" x1="-32.5" y1="-41.66699981689453" x2="-32.5" y2="41.66699981689453"><stop offset="0%" stop-color="rgb(135,23,156)"></stop><stop offset="50%" stop-color="rgb(192,11,147)"></stop><stop offset="100%" stop-color="rgb(249,0,137)"></stop></linearGradient><linearGradient id="__lottie_element_98" spreadMethod="pad" gradientUnits="userSpaceOnUse" x1="41.731998443603516" y1="0.03400000184774399" x2="-41.64699935913086" y2="0.03400000184774399"><stop offset="49%" stop-color="rgb(255,109,106)"></stop><stop offset="75%" stop-color="rgb(247,87,108)"></stop><stop offset="100%" stop-color="rgb(239,66,111)"></stop></linearGradient><linearGradient id="__lottie_element_102" spreadMethod="pad" gradientUnits="userSpaceOnUse" x1="-20.547000885009766" y1="-10.119000434875488" x2="14.166999816894531" y2="-8.095000267028809"><stop offset="0%" stop-color="rgb(249,226,124)"></stop><stop offset="50%" stop-color="rgb(252,209,94)"></stop><stop offset="100%" stop-color="rgb(255,191,63)"></stop></linearGradient></defs><g clip-path="url(#__lottie_element_3)"><g style="display: none;" transform="matrix(1,0,0,1,259.969970703125,303.90496826171875)" opacity="1"><g opacity="1" transform="matrix(2,0,0,2,0,0)"><path fill="url(#__lottie_element_102)" fill-opacity="1" d=" M0,14.166999816894531 C-7.823999881744385,14.166999816894531 -14.166999816894531,7.823999881744385 -14.166999816894531,0 C-14.166999816894531,-7.823999881744385 -7.823999881744385,-14.166999816894531 0,-14.166999816894531 C7.823999881744385,-14.166999816894531 14.166999816894531,-7.823999881744385 14.166999816894531,0 C14.166999816894531,7.823999881744385 7.823999881744385,14.166999816894531 0,14.166999816894531z"></path></g></g><g transform="matrix(1,0,0,1,83.3340072631836,332.666015625)" opacity="1" style="display: block;"><g opacity="1" transform="matrix(2,0,0,2,0,0)"><path fill="url(#__lottie_element_98)" fill-opacity="1" d=" M41.66699981689453,83.33300018310547 C41.66699981689453,83.33300018310547 -41.66699981689453,83.33300018310547 -41.66699981689453,83.33300018310547 C-41.66699981689453,83.33300018310547 -41.66699981689453,-0.04899999871850014 -41.66699981689453,-0.04899999871850014 C-41.66699981689453,-45.981998443603516 -4.390999794006348,-83.33300018310547 41.66699981689453,-83.33300018310547 C41.66699981689453,-83.33300018310547 41.66699981689453,83.33300018310547 41.66699981689453,83.33300018310547z"></path></g></g><g transform="matrix(1,0,0,1,231,417.333984375)" opacity="1" style="display: block;"><g opacity="1" transform="matrix(2,0,0,2,0,0)"><path fill="url(#__lottie_element_94)" fill-opacity="1" d=" M32.5,23.33300018310547 C32.5,-12.565999984741211 3.3989999294281006,-41.66699981689453 -32.5,-41.66699981689453 C-32.5,-41.66699981689453 -32.5,41.66699981689453 -32.5,41.66699981689453 C-32.5,41.66699981689453 32.5,41.66699981689453 32.5,41.66699981689453 C32.5,41.66699981689453 32.5,23.33300018310547 32.5,23.33300018310547z"></path></g></g><g transform="matrix(1,0,0,1,83.33300018310547,416.6659851074219)" opacity="1" style="display: block;"><g opacity="1" transform="matrix(2,0,0,2,0,0)"><path fill="rgb(239,66,111)" fill-opacity="1" d=" M41.66699981689453,41.66699981689453 C41.66699981689453,41.66699981689453 -41.66699981689453,41.66699981689453 -41.66699981689453,41.66699981689453 C-41.66699981689453,41.66699981689453 41.66699981689453,-41.66699981689453 41.66699981689453,-41.66699981689453 C41.66699981689453,-41.66699981689453 41.66699981689453,41.66699981689453 41.66699981689453,41.66699981689453z"></path></g></g><g transform="matrix(1,0,0,1,916.666015625,416.6659851074219)" opacity="1" style="display: block;"><g opacity="1" transform="matrix(2,0,0,2,0,0)"><path fill="url(#__lottie_element_87)" fill-opacity="1" d=" M-41.66699981689453,41.66699981689453 C-41.66699981689453,-4.386000156402588 -4.386000156402588,-41.66699981689453 41.66699981689453,-41.66699981689453 C41.66699981689453,4.386000156402588 4.386000156402588,41.66699981689453 -41.66699981689453,41.66699981689453z"></path></g></g><g transform="matrix(1,0,0,1,750,416.6659851074219)" opacity="1" style="display: block;"><g opacity="1" transform="matrix(2,0,0,2,0,0)"><path fill="url(#__lottie_element_76)" fill-opacity="1" d=" M-41.66699981689453,41.66699981689453 C-41.66699981689453,41.66699981689453 41.66699981689453,41.66699981689453 41.66699981689453,41.66699981689453 C41.66699981689453,41.66699981689453 41.66699981689453,-41.66699981689453 41.66699981689453,-41.66699981689453 C-4.386000156402588,-41.66699981689453 -41.66699981689453,-4.386000156402588 -41.66699981689453,41.66699981689453z"></path></g></g><g mask="url(#__lottie_element_72)" style="display: block;"><g transform="matrix(-0.8551110029220581,-0.5184449553489685,0.5184449553489685,-0.8551110029220581,261.63623046875,314.6458740234375)" opacity="1"><g opacity="1" transform="matrix(2,0,0,2,0,0)"><path fill="rgb(59,36,155)" fill-opacity="1" d=" M0,14.166999816894531 C-7.823999881744385,14.166999816894531 -14.166999816894531,7.823999881744385 -14.166999816894531,0 C-14.166999816894531,-7.823999881744385 -7.823999881744385,-14.166999816894531 0,-14.166999816894531 C7.823999881744385,-14.166999816894531 14.166999816894531,-7.823999881744385 14.166999816894531,0 C14.166999816894531,7.823999881744385 7.823999881744385,14.166999816894531 0,14.166999816894531z"></path></g></g></g><g transform="matrix(1,0,0,1,500,373.3330078125)" opacity="1" style="display: block;"><g opacity="1" transform="matrix(2,0,0,2,0,0)"><path fill="url(#__lottie_element_71)" fill-opacity="1" d=" M-50.83300018310547,-63.33300018310547 C-50.83300018310547,-63.33300018310547 50.83300018310547,-63.33300018310547 50.83300018310547,-63.33300018310547 C50.83300018310547,-63.33300018310547 50.83300018310547,12.5 50.83300018310547,12.5 C50.83300018310547,40.57400131225586 28.073999404907227,63.33300018310547 0,63.33300018310547 C-28.073999404907227,63.33300018310547 -50.83300018310547,40.57400131225586 -50.83300018310547,12.5 C-50.83300018310547,12.5 -50.83300018310547,-63.33300018310547 -50.83300018310547,-63.33300018310547z"></path></g></g><g transform="matrix(1,0,0,1,500.0580139160156,94.25399780273438)" opacity="1" style="display: block;"><g opacity="1" transform="matrix(2,0,0,2,0,0)"><path fill="url(#__lottie_element_66)" fill-opacity="1" d=" M-50.862998962402344,-25.430999755859375 C-50.862998962402344,-25.430999755859375 0,25.430999755859375 0,25.430999755859375 C0,25.430999755859375 50.862998962402344,-25.430999755859375 50.862998962402344,-25.430999755859375 C50.862998962402344,-25.430999755859375 -50.862998962402344,-25.430999755859375 -50.862998962402344,-25.430999755859375z"></path></g></g><g transform="matrix(1,0,0,1,500.0580139160156,195.92001342773438)" opacity="1" style="display: block;"><g opacity="1" transform="matrix(2,0,0,2,0,0)"><path fill="url(#__lottie_element_61)" fill-opacity="1" d=" M-50.862998962402344,-25.430999755859375 C-50.862998962402344,-25.430999755859375 0,25.430999755859375 0,25.430999755859375 C0,25.430999755859375 50.862998962402344,-25.430999755859375 50.862998962402344,-25.430999755859375 C50.862998962402344,-25.430999755859375 -50.862998962402344,-25.430999755859375 -50.862998962402344,-25.430999755859375z"></path></g></g><g transform="matrix(1,0,0,1,500.0580139160156,296.8370056152344)" opacity="1" style="display: block;"><g opacity="1" transform="matrix(2,0,0,2,0,0)"><path fill="url(#__lottie_element_56)" fill-opacity="1" d=" M-50.862998962402344,-25.430999755859375 C-50.862998962402344,-25.430999755859375 0,25.430999755859375 0,25.430999755859375 C0,25.430999755859375 50.862998962402344,-25.430999755859375 50.862998962402344,-25.430999755859375 C50.862998962402344,-25.430999755859375 -50.862998962402344,-25.430999755859375 -50.862998962402344,-25.430999755859375z"></path></g></g><g transform="matrix(-0.8551110029220581,-0.5184449553489685,0.5184449553489685,-0.8551110029220581,260,305)" opacity="1" style="display: block;"><g opacity="1" transform="matrix(-1.7107285261154175,-1.036054015159607,1.036054015159607,-1.7107285261154175,0,0)"><path fill="url(#__lottie_element_51)" fill-opacity="1" d=" M0,14.166999816894531 C-7.823999881744385,14.166999816894531 -14.166999816894531,7.823999881744385 -14.166999816894531,0 C-14.166999816894531,-7.823999881744385 -7.823999881744385,-14.166999816894531 0,-14.166999816894531 C7.823999881744385,-14.166999816894531 14.166999816894531,-7.823999881744385 14.166999816894531,0 C14.166999816894531,7.823999881744385 7.823999881744385,14.166999816894531 0,14.166999816894531z"></path></g></g><g clip-path="url(#__lottie_element_32)" transform="matrix(1,0,0,1,0,0)" opacity="1" style="display: block;"><g mask="url(#__lottie_element_40)" style="display: block;"><g transform="matrix(-1,0,0,-1,191.8000030517578,116)" opacity="1"><g opacity="1" transform="matrix(2,0,0,2,0,0)"><path fill="rgb(1,203,169)" fill-opacity="1" d=" M-12.5,-25 C-12.5,-25 -12.5,25 -12.5,25 C1.315999984741211,25 12.5,13.815999984741211 12.5,0 C12.5,-13.815999984741211 1.315999984741211,-25 -12.5,-25z"></path></g></g></g><g transform="matrix(1,0,0,1,191,116)" opacity="1" style="display: block;"><g opacity="1" transform="matrix(2,0,0,2,0,0)"><path fill="rgb(239,66,111)" fill-opacity="1" d=" M-12.5,-25 C-12.5,-25 -12.5,25 -12.5,25 C1.315999984741211,25 12.5,13.815999984741211 12.5,0 C12.5,-13.815999984741211 1.315999984741211,-25 -12.5,-25z"></path></g></g></g><g mask="url(#__lottie_element_7)" style="display: none;"><g clip-path="url(#__lottie_element_15)"><g mask="url(#__lottie_element_23)" style="display: none;"><g><g><path></path></g></g></g><g style="display: none;"><g><path></path></g></g></g></g><g style="display: none;" transform="matrix(0.9801453948020935,-0.0234441626816988,0.0234441626816988,0.9801453948020935,189.3314208984375,116.40663146972656)" opacity="1"><g opacity="1" transform="matrix(2,0,0,2,0,0)"><path fill="rgb(239,66,111)" fill-opacity="1" d=" M-12.5,-25 C-12.5,-25 -12.5,25 -12.5,25 C1.315999984741211,25 12.5,13.815999984741211 12.5,0 C12.5,-13.815999984741211 1.315999984741211,-25 -12.5,-25z"></path></g></g></g></svg>