<?xml version="1.0" encoding="UTF-8" standalone="no"?>
<!-- Generated by IcoMoon.io -->

<svg
   xmlns:dc="http://purl.org/dc/elements/1.1/"
   xmlns:cc="http://creativecommons.org/ns#"
   xmlns:rdf="http://www.w3.org/1999/02/22-rdf-syntax-ns#"
   xmlns:svg="http://www.w3.org/2000/svg"
   xmlns="http://www.w3.org/2000/svg"
   xmlns:sodipodi="http://sodipodi.sourceforge.net/DTD/sodipodi-0.dtd"
   xmlns:inkscape="http://www.inkscape.org/namespaces/inkscape"
   version="1.1"
   width="20"
   height="20"
   viewBox="0 0 20 20"
   id="svg4"
   sodipodi:docname="phone-handset.svg"
   inkscape:version="0.92.4 (5da689c313, 2019-01-14)">
  <metadata
     id="metadata10">
    <rdf:RDF>
      <cc:Work
         rdf:about="">
        <dc:format>image/svg+xml</dc:format>
        <dc:type
           rdf:resource="http://purl.org/dc/dcmitype/StillImage" />
      </cc:Work>
    </rdf:RDF>
  </metadata>
  <defs
     id="defs8" />
  <sodipodi:namedview
     pagecolor="#ffffff"
     bordercolor="#666666"
     borderopacity="1"
     objecttolerance="10"
     gridtolerance="10"
     guidetolerance="10"
     inkscape:pageopacity="0"
     inkscape:pageshadow="2"
     inkscape:window-width="1366"
     inkscape:window-height="715"
     id="namedview6"
     showgrid="false"
     inkscape:zoom="11.8"
     inkscape:cx="10"
     inkscape:cy="10"
     inkscape:window-x="-8"
     inkscape:window-y="-8"
     inkscape:window-maximized="1"
     inkscape:current-layer="svg4" />
  <path
     d="M 16,20 C 14.229,20 12.345,19.498 10.4,18.508 8.607,17.595 6.836,16.288 5.278,14.728 3.72,13.168 2.415,11.395 1.503,9.601 0.515,7.655 0.013,5.771 0.013,4 0.013,2.852 1.083,1.743 1.542,1.32 2.203,0.711 3.243,0 3.999,0 4.375,0 4.815,0.246 5.386,0.774 5.811,1.168 6.29,1.702 6.769,2.318 7.058,2.69 8.499,4.589 8.499,5.5 8.499,6.247 7.654,6.767 6.76,7.316 6.414,7.528 6.057,7.748 5.799,7.955 5.523,8.176 5.474,8.293 5.466,8.319 c 0.949,2.366 3.85,5.267 6.215,6.215 0.021,-0.007 0.138,-0.053 0.363,-0.333 0.207,-0.258 0.427,-0.616 0.639,-0.961 0.55,-0.894 1.069,-1.739 1.816,-1.739 0.911,0 2.81,1.441 3.182,1.73 0.616,0.479 1.15,0.958 1.544,1.383 0.528,0.57 0.774,1.011 0.774,1.387 0,0.756 -0.711,1.799 -1.319,2.463 -0.424,0.462 -1.533,1.537 -2.681,1.537 z"
     id="path2"
     inkscape:connector-curvature="0"
     style="fill:#000000"
     sodipodi:nodetypes="ccscscsccsccccccsccsccc" />
</svg>
